<!-- Generated by IcoMoon.io -->
<svg version="1.1" xmlns="http://www.w3.org/2000/svg" width="1024" height="1024" viewBox="0 0 1024 1024">
<title></title>
<g id="icomoon-ignore">
</g>
<path d="M153.6 256c0-28.277 22.923-51.2 51.2-51.2h614.4c28.277 0 51.2 22.923 51.2 51.2s-22.923 51.2-51.2 51.2h-614.4c-28.277 0-51.2-22.923-51.2-51.2v0zM153.6 512c0-28.277 22.923-51.2 51.2-51.2h614.4c28.277 0 51.2 22.923 51.2 51.2s-22.923 51.2-51.2 51.2h-614.4c-28.277 0-51.2-22.923-51.2-51.2v0zM153.6 768c0-28.277 22.923-51.2 51.2-51.2h614.4c28.277 0 51.2 22.923 51.2 51.2s-22.923 51.2-51.2 51.2h-614.4c-28.277 0-51.2-22.923-51.2-51.2v0z"></path>
</svg>
